<svg width="38" height="44" viewBox="0 0 38 44" fill="none" xmlns="http://www.w3.org/2000/svg">
<path d="M19 2C16.38 2 14.25 4.13 14.25 6.75C14.25 9.32 16.26 11.4 18.88 11.49C18.96 11.48 19.04 11.48 19.1 11.49H19.17C20.3994 11.449 21.5646 10.9315 22.4193 10.0469C23.274 9.16234 23.7512 7.98004 23.75 6.75C23.75 4.13 21.62 2 19 2ZM24.08 14.149C21.29 12.289 16.74 12.289 13.93 14.149C12.66 14.999 11.96 16.149 11.96 17.379C11.96 18.609 12.66 19.749 13.92 20.589C15.32 21.529 17.16 21.999 19 21.999C20.84 21.999 22.68 21.529 24.08 20.589C25.34 19.739 26.04 18.599 26.04 17.359C26.03 16.129 25.34 14.989 24.08 14.149Z" fill="#ECEAE7"/>
<path d="M6.732 33.144C6.732 33.568 6.632 33.968 6.432 34.344C6.232 34.72 5.912 35.028 5.472 35.268C5.032 35.5 4.468 35.616 3.78 35.616H2.268V39H0.9V30.66H3.78C4.42 30.66 4.96 30.772 5.4 30.996C5.848 31.212 6.18 31.508 6.396 31.884C6.62 32.26 6.732 32.68 6.732 33.144ZM3.78 34.5C4.3 34.5 4.688 34.384 4.944 34.152C5.2 33.912 5.328 33.576 5.328 33.144C5.328 32.232 4.812 31.776 3.78 31.776H2.268V34.5H3.78ZM9.40472 33.348C9.60472 33.012 9.86872 32.752 10.1967 32.568C10.5327 32.376 10.9287 32.28 11.3847 32.28V33.696H11.0367C10.5007 33.696 10.0927 33.832 9.81272 34.104C9.54072 34.376 9.40472 34.848 9.40472 35.52V39H8.03672V32.388H9.40472V33.348ZM15.5102 39.108C14.8862 39.108 14.3222 38.968 13.8182 38.688C13.3142 38.4 12.9182 38 12.6302 37.488C12.3422 36.968 12.1982 36.368 12.1982 35.688C12.1982 35.016 12.3462 34.42 12.6422 33.9C12.9382 33.38 13.3422 32.98 13.8542 32.7C14.3662 32.42 14.9382 32.28 15.5702 32.28C16.2022 32.28 16.7742 32.42 17.2862 32.7C17.7982 32.98 18.2022 33.38 18.4982 33.9C18.7942 34.42 18.9422 35.016 18.9422 35.688C18.9422 36.36 18.7902 36.956 18.4862 37.476C18.1822 37.996 17.7662 38.4 17.2382 38.688C16.7182 38.968 16.1422 39.108 15.5102 39.108ZM15.5102 37.92C15.8622 37.92 16.1902 37.836 16.4942 37.668C16.8062 37.5 17.0582 37.248 17.2502 36.912C17.4422 36.576 17.5382 36.168 17.5382 35.688C17.5382 35.208 17.4462 34.804 17.2622 34.476C17.0782 34.14 16.8342 33.888 16.5302 33.72C16.2262 33.552 15.8982 33.468 15.5462 33.468C15.1942 33.468 14.8662 33.552 14.5622 33.72C14.2662 33.888 14.0302 34.14 13.8542 34.476C13.6782 34.804 13.5902 35.208 13.5902 35.688C13.5902 36.4 13.7702 36.952 14.1302 37.344C14.4982 37.728 14.9582 37.92 15.5102 37.92ZM23.0665 33.504H21.8425V39H20.4625V33.504H19.6825V32.388H20.4625V31.92C20.4625 31.16 20.6625 30.608 21.0625 30.264C21.4705 29.912 22.1065 29.736 22.9705 29.736V30.876C22.5545 30.876 22.2625 30.956 22.0945 31.116C21.9265 31.268 21.8425 31.536 21.8425 31.92V32.388H23.0665V33.504ZM24.9749 31.512C24.7269 31.512 24.5189 31.428 24.3509 31.26C24.1829 31.092 24.0989 30.884 24.0989 30.636C24.0989 30.388 24.1829 30.18 24.3509 30.012C24.5189 29.844 24.7269 29.76 24.9749 29.76C25.2149 29.76 25.4189 29.844 25.5869 30.012C25.7549 30.18 25.8389 30.388 25.8389 30.636C25.8389 30.884 25.7549 31.092 25.5869 31.26C25.4189 31.428 25.2149 31.512 24.9749 31.512ZM25.6469 32.388V39H24.2789V32.388H25.6469ZM28.811 30.12V39H27.443V30.12H28.811ZM36.667 35.532C36.667 35.78 36.651 36.004 36.619 36.204H31.567C31.607 36.732 31.803 37.156 32.155 37.476C32.507 37.796 32.939 37.956 33.451 37.956C34.187 37.956 34.707 37.648 35.011 37.032H36.487C36.287 37.64 35.923 38.14 35.395 38.532C34.875 38.916 34.227 39.108 33.451 39.108C32.819 39.108 32.251 38.968 31.747 38.688C31.251 38.4 30.859 38 30.571 37.488C30.291 36.968 30.151 36.368 30.151 35.688C30.151 35.008 30.287 34.412 30.559 33.9C30.839 33.38 31.227 32.98 31.723 32.7C32.227 32.42 32.803 32.28 33.451 32.28C34.075 32.28 34.631 32.416 35.119 32.688C35.607 32.96 35.987 33.344 36.259 33.84C36.531 34.328 36.667 34.892 36.667 35.532ZM35.239 35.1C35.231 34.596 35.051 34.192 34.699 33.888C34.347 33.584 33.911 33.432 33.391 33.432C32.919 33.432 32.515 33.584 32.179 33.888C31.843 34.184 31.643 34.588 31.579 35.1H35.239Z" fill="#ECEAE7"/>
</svg>
