<svg width="16" height="24" viewBox="0 0 16 24" fill="none" xmlns="http://www.w3.org/2000/svg">
<path opacity="0.88" d="M15.2059 7.60294C15.2059 3.40059 11.8053 0 7.60294 0C3.40059 0 0 3.40059 0 7.60294C0 11.0448 2.28058 13.9342 5.41076 14.8726C5.87307 15.0112 6.22059 15.4181 6.22059 15.9008V16.9706C6.22059 17.5229 5.77287 17.9706 5.22059 17.9706H4.45588C3.9036 17.9706 3.45588 18.4183 3.45588 18.9706V19.7353C3.45588 20.2876 3.9036 20.7353 4.45588 20.7353H5.22059C5.77287 20.7353 6.22059 21.183 6.22059 21.7353V22.5C6.22059 23.0523 6.6683 23.5 7.22059 23.5H7.9853C8.53758 23.5 8.9853 23.0523 8.9853 22.5V21.7353C8.9853 21.183 9.43301 20.7353 9.9853 20.7353H10.75C11.3023 20.7353 11.75 20.2876 11.75 19.7353V18.9706C11.75 18.4183 11.3023 17.9706 10.75 17.9706H9.9853C9.43301 17.9706 8.9853 17.5229 8.9853 16.9706V15.9008C8.9853 15.4181 9.33281 15.0112 9.79512 14.8726C12.9253 13.9342 15.2059 11.0448 15.2059 7.60294ZM2.76471 7.60294C2.76471 4.935 4.935 2.76471 7.60294 2.76471C10.2709 2.76471 12.4412 4.935 12.4412 7.60294C12.4412 10.2709 10.2709 12.4412 7.60294 12.4412C4.935 12.4412 2.76471 10.2709 2.76471 7.60294Z" fill="#fff"/>
</svg>
