<svg width="44" height="44" viewBox="0 0 44 44" fill="none" xmlns="http://www.w3.org/2000/svg">
<path d="M16.5 17.5L24 14L27.5 6.5L20 10L16.5 17.5ZM22 13C21.7167 13 21.479 12.904 21.287 12.712C21.095 12.52 20.9993 12.2827 21 12C21 11.7167 21.096 11.479 21.288 11.287C21.48 11.095 21.7173 10.9993 22 11C22.2833 11 22.521 11.096 22.713 11.288C22.905 11.48 23.0007 11.7173 23 12C23 12.2833 22.904 12.521 22.712 12.713C22.52 12.905 22.2827 13.0007 22 13ZM22 22C20.6167 22 19.3167 21.7373 18.1 21.212C16.8833 20.6867 15.825 19.9743 14.925 19.075C14.025 18.175 13.3127 17.1167 12.788 15.9C12.2633 14.6833 12.0007 13.3833 12 12C12 10.6167 12.2627 9.31667 12.788 8.1C13.3133 6.88333 14.0257 5.825 14.925 4.925C15.825 4.025 16.8833 3.31267 18.1 2.788C19.3167 2.26333 20.6167 2.00067 22 2C23.3833 2 24.6833 2.26267 25.9 2.788C27.1167 3.31333 28.175 4.02567 29.075 4.925C29.975 5.825 30.6877 6.88333 31.213 8.1C31.7383 9.31667 32.0007 10.6167 32 12C32 13.3833 31.7373 14.6833 31.212 15.9C30.6867 17.1167 29.9743 18.175 29.075 19.075C28.175 19.975 27.1167 20.6877 25.9 21.213C24.6833 21.7383 23.3833 22.0007 22 22Z" fill="#ECEAE7"/>
<path d="M2.268 31.764V34.212H5.148V35.328H2.268V37.884H5.508V39H0.9V30.648H5.508V31.764H2.268ZM10.025 35.652L12.161 39H10.613L9.18497 36.756L7.84097 39H6.41297L8.54897 35.748L6.41297 32.388H7.96097L9.38897 34.632L10.733 32.388H12.161L10.025 35.652ZM14.5493 33.36C14.7813 33.056 15.0973 32.8 15.4973 32.592C15.8973 32.384 16.3493 32.28 16.8533 32.28C17.4293 32.28 17.9533 32.424 18.4253 32.712C18.9053 32.992 19.2813 33.388 19.5533 33.9C19.8253 34.412 19.9613 35 19.9613 35.664C19.9613 36.328 19.8253 36.924 19.5533 37.452C19.2813 37.972 18.9053 38.38 18.4253 38.676C17.9533 38.964 17.4293 39.108 16.8533 39.108C16.3493 39.108 15.9013 39.008 15.5093 38.808C15.1173 38.6 14.7973 38.344 14.5493 38.04V42.144H13.1813V32.388H14.5493V33.36ZM18.5693 35.664C18.5693 35.208 18.4733 34.816 18.2812 34.488C18.0973 34.152 17.8493 33.9 17.5373 33.732C17.2333 33.556 16.9053 33.468 16.5533 33.468C16.2093 33.468 15.8813 33.556 15.5693 33.732C15.2653 33.908 15.0173 34.164 14.8253 34.5C14.6413 34.836 14.5493 35.232 14.5493 35.688C14.5493 36.144 14.6413 36.544 14.8253 36.888C15.0173 37.224 15.2653 37.48 15.5693 37.656C15.8813 37.832 16.2093 37.92 16.5533 37.92C16.9053 37.92 17.2333 37.832 17.5373 37.656C17.8493 37.472 18.0973 37.208 18.2812 36.864C18.4733 36.52 18.5693 36.12 18.5693 35.664ZM22.6821 30.12V39H21.3141V30.12H22.6821ZM27.3461 39.108C26.7221 39.108 26.1581 38.968 25.6541 38.688C25.1501 38.4 24.7541 38 24.4661 37.488C24.1781 36.968 24.0341 36.368 24.0341 35.688C24.0341 35.016 24.1821 34.42 24.4781 33.9C24.7741 33.38 25.1781 32.98 25.6901 32.7C26.2021 32.42 26.7741 32.28 27.4061 32.28C28.0381 32.28 28.6101 32.42 29.1221 32.7C29.6341 32.98 30.0381 33.38 30.3341 33.9C30.6301 34.42 30.7781 35.016 30.7781 35.688C30.7781 36.36 30.6261 36.956 30.3221 37.476C30.0181 37.996 29.6021 38.4 29.0741 38.688C28.5541 38.968 27.9781 39.108 27.3461 39.108ZM27.3461 37.92C27.6981 37.92 28.0261 37.836 28.3301 37.668C28.6421 37.5 28.8941 37.248 29.0861 36.912C29.2781 36.576 29.3741 36.168 29.3741 35.688C29.3741 35.208 29.2821 34.804 29.0981 34.476C28.9141 34.14 28.6701 33.888 28.3661 33.72C28.0621 33.552 27.7341 33.468 27.3821 33.468C27.0301 33.468 26.7021 33.552 26.3981 33.72C26.1021 33.888 25.8661 34.14 25.6901 34.476C25.5141 34.804 25.4261 35.208 25.4261 35.688C25.4261 36.4 25.6061 36.952 25.9661 37.344C26.3341 37.728 26.7941 37.92 27.3461 37.92ZM33.4985 33.348C33.6985 33.012 33.9625 32.752 34.2905 32.568C34.6265 32.376 35.0225 32.28 35.4785 32.28V33.696H35.1305C34.5945 33.696 34.1865 33.832 33.9065 34.104C33.6345 34.376 33.4985 34.848 33.4985 35.52V39H32.1305V32.388H33.4985V33.348ZM42.7959 35.532C42.7959 35.78 42.7799 36.004 42.7479 36.204H37.6959C37.7359 36.732 37.9319 37.156 38.2839 37.476C38.6359 37.796 39.0679 37.956 39.5799 37.956C40.3159 37.956 40.8359 37.648 41.1399 37.032H42.6159C42.4159 37.64 42.0519 38.14 41.5239 38.532C41.0039 38.916 40.3559 39.108 39.5799 39.108C38.9479 39.108 38.3799 38.968 37.8759 38.688C37.3799 38.4 36.9879 38 36.6999 37.488C36.4199 36.968 36.2799 36.368 36.2799 35.688C36.2799 35.008 36.4159 34.412 36.6879 33.9C36.9679 33.38 37.3559 32.98 37.8519 32.7C38.3559 32.42 38.9319 32.28 39.5799 32.28C40.2039 32.28 40.7599 32.416 41.2479 32.688C41.7359 32.96 42.1159 33.344 42.3879 33.84C42.6599 34.328 42.7959 34.892 42.7959 35.532ZM41.3679 35.1C41.3599 34.596 41.1799 34.192 40.8279 33.888C40.4759 33.584 40.0399 33.432 39.5199 33.432C39.0479 33.432 38.6439 33.584 38.3079 33.888C37.9719 34.184 37.7719 34.588 37.7079 35.1H41.3679Z" fill="#ECEAE7"/>
</svg>
