<svg width="20" height="20" viewBox="0 0 20 20" fill="none" xmlns="http://www.w3.org/2000/svg">
<path d="M18.3334 6.29012C18.3334 6.84012 17.8834 7.29012 17.3334 7.29012H2.66669C2.11669 7.29012 1.66669 6.84012 1.66669 6.29012V6.28179C1.66669 4.37345 3.20835 2.83179 5.11669 2.83179H14.875C16.7834 2.83179 18.3334 4.38179 18.3334 6.29012ZM1.66669 9.54179V13.7168C1.66669 15.6251 3.20835 17.1668 5.11669 17.1668H14.875C16.7834 17.1668 18.3334 15.6168 18.3334 13.7085V9.54179C18.3334 8.99179 17.8834 8.54179 17.3334 8.54179H2.66669C2.11669 8.54179 1.66669 8.99179 1.66669 9.54179ZM6.66669 14.3751H5.00002C4.65835 14.3751 4.37502 14.0918 4.37502 13.7501C4.37502 13.4085 4.65835 13.1251 5.00002 13.1251H6.66669C7.00835 13.1251 7.29169 13.4085 7.29169 13.7501C7.29169 14.0918 7.00835 14.3751 6.66669 14.3751ZM12.0834 14.3751H8.75002C8.40835 14.3751 8.12502 14.0918 8.12502 13.7501C8.12502 13.4085 8.40835 13.1251 8.75002 13.1251H12.0834C12.425 13.1251 12.7084 13.4085 12.7084 13.7501C12.7084 14.0918 12.425 14.3751 12.0834 14.3751Z" fill="#ECEAE7"/>
</svg>
