<svg width="22" height="22" viewBox="0 0 22 22" fill="none" xmlns="http://www.w3.org/2000/svg">
<path d="M8.66667 0.5H1.66667C1.35725 0.5 1.0605 0.622916 0.841709 0.841709C0.622916 1.0605 0.5 1.35725 0.5 1.66667V8.66667C0.5 8.97609 0.622916 9.27283 0.841709 9.49162C1.0605 9.71042 1.35725 9.83333 1.66667 9.83333H8.66667C8.97609 9.83333 9.27283 9.71042 9.49162 9.49162C9.71042 9.27283 9.83333 8.97609 9.83333 8.66667V1.66667C9.83333 1.35725 9.71042 1.0605 9.49162 0.841709C9.27283 0.622916 8.97609 0.5 8.66667 0.5ZM20.3333 12.1667H13.3333C13.0239 12.1667 12.7272 12.2896 12.5084 12.5084C12.2896 12.7272 12.1667 13.0239 12.1667 13.3333V20.3333C12.1667 20.6428 12.2896 20.9395 12.5084 21.1583C12.7272 21.3771 13.0239 21.5 13.3333 21.5H20.3333C20.6428 21.5 20.9395 21.3771 21.1583 21.1583C21.3771 20.9395 21.5 20.6428 21.5 20.3333V13.3333C21.5 13.0239 21.3771 12.7272 21.1583 12.5084C20.9395 12.2896 20.6428 12.1667 20.3333 12.1667ZM16.8333 0.5C14.2597 0.5 12.1667 2.593 12.1667 5.16667C12.1667 7.74033 14.2597 9.83333 16.8333 9.83333C19.407 9.83333 21.5 7.74033 21.5 5.16667C21.5 2.593 19.407 0.5 16.8333 0.5ZM5.16667 12.1667C2.593 12.1667 0.5 14.2597 0.5 16.8333C0.5 19.407 2.593 21.5 5.16667 21.5C7.74033 21.5 9.83333 19.407 9.83333 16.8333C9.83333 14.2597 7.74033 12.1667 5.16667 12.1667Z" fill="#ECEAE7"/>
</svg>
