<svg width="129" height="28" viewBox="0 0 129 28" fill="none" xmlns="http://www.w3.org/2000/svg">
<path d="M40.592 14.416C40.592 13.328 40.8427 12.352 41.344 11.488C41.856 10.624 42.544 9.952 43.408 9.472C44.2827 8.98133 45.2373 8.736 46.272 8.736C47.456 8.736 48.5067 9.02933 49.424 9.616C50.352 10.192 51.024 11.0133 51.44 12.08H49.248C48.96 11.4933 48.56 11.056 48.048 10.768C47.536 10.48 46.944 10.336 46.272 10.336C45.536 10.336 44.88 10.5013 44.304 10.832C43.728 11.1627 43.2747 11.6373 42.944 12.256C42.624 12.8747 42.464 13.5947 42.464 14.416C42.464 15.2373 42.624 15.9573 42.944 16.576C43.2747 17.1947 43.728 17.6747 44.304 18.016C44.88 18.3467 45.536 18.512 46.272 18.512C46.944 18.512 47.536 18.368 48.048 18.08C48.56 17.792 48.96 17.3547 49.248 16.768H51.44C51.024 17.8347 50.352 18.656 49.424 19.232C48.5067 19.808 47.456 20.096 46.272 20.096C45.2267 20.096 44.272 19.856 43.408 19.376C42.544 18.8853 41.856 18.208 41.344 17.344C40.8427 16.48 40.592 15.504 40.592 14.416ZM52.967 15.552C52.967 14.6667 53.1483 13.8827 53.511 13.2C53.8843 12.5173 54.3857 11.9893 55.015 11.616C55.655 11.232 56.359 11.04 57.127 11.04C57.8203 11.04 58.423 11.1787 58.935 11.456C59.4577 11.7227 59.8737 12.0587 60.183 12.464V11.184H62.023V20H60.183V18.688C59.8737 19.104 59.4523 19.4507 58.919 19.728C58.3857 20.0053 57.7777 20.144 57.095 20.144C56.3377 20.144 55.6443 19.952 55.015 19.568C54.3857 19.1733 53.8843 18.6293 53.511 17.936C53.1483 17.232 52.967 16.4373 52.967 15.552ZM60.183 15.584C60.183 14.976 60.055 14.448 59.799 14C59.5537 13.552 59.2283 13.2107 58.823 12.976C58.4177 12.7413 57.9803 12.624 57.511 12.624C57.0417 12.624 56.6043 12.7413 56.199 12.976C55.7937 13.2 55.463 13.536 55.207 13.984C54.9617 14.4213 54.839 14.944 54.839 15.552C54.839 16.16 54.9617 16.6933 55.207 17.152C55.463 17.6107 55.7937 17.9627 56.199 18.208C56.615 18.4427 57.0523 18.56 57.511 18.56C57.9803 18.56 58.4177 18.4427 58.823 18.208C59.2283 17.9733 59.5537 17.632 59.799 17.184C60.055 16.7253 60.183 16.192 60.183 15.584ZM66.5468 12.672V17.552C66.5468 17.8827 66.6214 18.1227 66.7708 18.272C66.9308 18.4107 67.1974 18.48 67.5708 18.48H68.6908V20H67.2508C66.4294 20 65.8001 19.808 65.3628 19.424C64.9254 19.04 64.7068 18.416 64.7068 17.552V12.672H63.6668V11.184H64.7068V8.992H66.5468V11.184H68.6908V12.672H66.5468ZM78.4519 15.376C78.4519 15.7067 78.4305 16.0053 78.3879 16.272H71.6519C71.7052 16.976 71.9665 17.5413 72.4359 17.968C72.9052 18.3947 73.4812 18.608 74.1639 18.608C75.1452 18.608 75.8385 18.1973 76.2439 17.376H78.2119C77.9452 18.1867 77.4599 18.8533 76.7559 19.376C76.0625 19.888 75.1985 20.144 74.1639 20.144C73.3212 20.144 72.5639 19.9573 71.8919 19.584C71.2305 19.2 70.7079 18.6667 70.3239 17.984C69.9505 17.2907 69.7639 16.4907 69.7639 15.584C69.7639 14.6773 69.9452 13.8827 70.3079 13.2C70.6812 12.5067 71.1985 11.9733 71.8599 11.6C72.5319 11.2267 73.2999 11.04 74.1639 11.04C74.9959 11.04 75.7372 11.2213 76.3879 11.584C77.0385 11.9467 77.5452 12.4587 77.9079 13.12C78.2705 13.7707 78.4519 14.5227 78.4519 15.376ZM76.5479 14.8C76.5372 14.128 76.2972 13.5893 75.8279 13.184C75.3585 12.7787 74.7772 12.576 74.0839 12.576C73.4545 12.576 72.9159 12.7787 72.4679 13.184C72.0199 13.5787 71.7532 14.1173 71.6679 14.8H76.5479ZM83.7989 11.04C84.4815 11.04 85.0842 11.1787 85.6069 11.456C86.1402 11.7227 86.5562 12.0587 86.8549 12.464V11.184H88.6949V20.144C88.6949 20.9547 88.5242 21.6747 88.1829 22.304C87.8415 22.944 87.3455 23.4453 86.6949 23.808C86.0549 24.1707 85.2869 24.352 84.3909 24.352C83.1962 24.352 82.2042 24.0693 81.4149 23.504C80.6255 22.9493 80.1775 22.192 80.0709 21.232H81.8789C82.0175 21.6907 82.3109 22.0587 82.7589 22.336C83.2175 22.624 83.7615 22.768 84.3909 22.768C85.1269 22.768 85.7189 22.544 86.1669 22.096C86.6255 21.648 86.8549 20.9973 86.8549 20.144V18.672C86.5455 19.088 86.1242 19.44 85.5909 19.728C85.0682 20.0053 84.4709 20.144 83.7989 20.144C83.0309 20.144 82.3269 19.952 81.6869 19.568C81.0575 19.1733 80.5562 18.6293 80.1829 17.936C79.8202 17.232 79.6389 16.4373 79.6389 15.552C79.6389 14.6667 79.8202 13.8827 80.1829 13.2C80.5562 12.5173 81.0575 11.9893 81.6869 11.616C82.3269 11.232 83.0309 11.04 83.7989 11.04ZM86.8549 15.584C86.8549 14.976 86.7269 14.448 86.4709 14C86.2255 13.552 85.9002 13.2107 85.4949 12.976C85.0895 12.7413 84.6522 12.624 84.1829 12.624C83.7135 12.624 83.2762 12.7413 82.8709 12.976C82.4655 13.2 82.1349 13.536 81.8789 13.984C81.6335 14.4213 81.5109 14.944 81.5109 15.552C81.5109 16.16 81.6335 16.6933 81.8789 17.152C82.1349 17.6107 82.4655 17.9627 82.8709 18.208C83.2869 18.4427 83.7242 18.56 84.1829 18.56C84.6522 18.56 85.0895 18.4427 85.4949 18.208C85.9002 17.9733 86.2255 17.632 86.4709 17.184C86.7269 16.7253 86.8549 16.192 86.8549 15.584ZM94.9146 20.144C94.0826 20.144 93.3306 19.9573 92.6586 19.584C91.9866 19.2 91.4586 18.6667 91.0746 17.984C90.6906 17.2907 90.4986 16.4907 90.4986 15.584C90.4986 14.688 90.696 13.8933 91.0906 13.2C91.4853 12.5067 92.024 11.9733 92.7066 11.6C93.3893 11.2267 94.152 11.04 94.9946 11.04C95.8373 11.04 96.6 11.2267 97.2826 11.6C97.9653 11.9733 98.504 12.5067 98.8986 13.2C99.2933 13.8933 99.4906 14.688 99.4906 15.584C99.4906 16.48 99.288 17.2747 98.8826 17.968C98.4773 18.6613 97.9226 19.2 97.2186 19.584C96.5253 19.9573 95.7573 20.144 94.9146 20.144ZM94.9146 18.56C95.384 18.56 95.8213 18.448 96.2266 18.224C96.6426 18 96.9786 17.664 97.2346 17.216C97.4906 16.768 97.6186 16.224 97.6186 15.584C97.6186 14.944 97.496 14.4053 97.2506 13.968C97.0053 13.52 96.68 13.184 96.2746 12.96C95.8693 12.736 95.432 12.624 94.9626 12.624C94.4933 12.624 94.056 12.736 93.6506 12.96C93.256 13.184 92.9413 13.52 92.7066 13.968C92.472 14.4053 92.3546 14.944 92.3546 15.584C92.3546 16.5333 92.5946 17.2693 93.0746 17.792C93.5653 18.304 94.1786 18.56 94.9146 18.56ZM103.118 12.464C103.384 12.016 103.736 11.6693 104.174 11.424C104.622 11.168 105.15 11.04 105.758 11.04V12.928H105.294C104.579 12.928 104.035 13.1093 103.662 13.472C103.299 13.8347 103.118 14.464 103.118 15.36V20H101.294V11.184H103.118V12.464ZM108.362 10.016C108.032 10.016 107.754 9.904 107.53 9.68C107.306 9.456 107.194 9.17867 107.194 8.848C107.194 8.51733 107.306 8.24 107.53 8.016C107.754 7.792 108.032 7.68 108.362 7.68C108.682 7.68 108.954 7.792 109.178 8.016C109.402 8.24 109.514 8.51733 109.514 8.848C109.514 9.17867 109.402 9.456 109.178 9.68C108.954 9.904 108.682 10.016 108.362 10.016ZM109.258 11.184V20H107.434V11.184H109.258ZM119.733 15.376C119.733 15.7067 119.712 16.0053 119.669 16.272H112.933C112.986 16.976 113.248 17.5413 113.717 17.968C114.186 18.3947 114.762 18.608 115.445 18.608C116.426 18.608 117.12 18.1973 117.525 17.376H119.493C119.226 18.1867 118.741 18.8533 118.037 19.376C117.344 19.888 116.48 20.144 115.445 20.144C114.602 20.144 113.845 19.9573 113.173 19.584C112.512 19.2 111.989 18.6667 111.605 17.984C111.232 17.2907 111.045 16.4907 111.045 15.584C111.045 14.6773 111.226 13.8827 111.589 13.2C111.962 12.5067 112.48 11.9733 113.141 11.6C113.813 11.2267 114.581 11.04 115.445 11.04C116.277 11.04 117.018 11.2213 117.669 11.584C118.32 11.9467 118.826 12.4587 119.189 13.12C119.552 13.7707 119.733 14.5227 119.733 15.376ZM117.829 14.8C117.818 14.128 117.578 13.5893 117.109 13.184C116.64 12.7787 116.058 12.576 115.365 12.576C114.736 12.576 114.197 12.7787 113.749 13.184C113.301 13.5787 113.034 14.1173 112.949 14.8H117.829ZM124.728 20.144C124.035 20.144 123.411 20.0213 122.856 19.776C122.312 19.52 121.88 19.1787 121.56 18.752C121.24 18.3147 121.069 17.8293 121.048 17.296H122.936C122.968 17.6693 123.144 17.984 123.464 18.24C123.795 18.4853 124.205 18.608 124.696 18.608C125.208 18.608 125.603 18.512 125.88 18.32C126.168 18.1173 126.312 17.8613 126.312 17.552C126.312 17.2213 126.152 16.976 125.832 16.816C125.523 16.656 125.027 16.48 124.344 16.288C123.683 16.1067 123.144 15.9307 122.728 15.76C122.312 15.5893 121.949 15.328 121.64 14.976C121.341 14.624 121.192 14.16 121.192 13.584C121.192 13.1147 121.331 12.688 121.608 12.304C121.885 11.9093 122.28 11.6 122.792 11.376C123.315 11.152 123.912 11.04 124.584 11.04C125.587 11.04 126.392 11.296 127 11.808C127.619 12.3093 127.949 12.9973 127.992 13.872H126.168C126.136 13.4773 125.976 13.1627 125.688 12.928C125.4 12.6933 125.011 12.576 124.52 12.576C124.04 12.576 123.672 12.6667 123.416 12.848C123.16 13.0293 123.032 13.2693 123.032 13.568C123.032 13.8027 123.117 14 123.288 14.16C123.459 14.32 123.667 14.448 123.912 14.544C124.157 14.6293 124.52 14.7413 125 14.88C125.64 15.0507 126.163 15.2267 126.568 15.408C126.984 15.5787 127.341 15.8347 127.64 16.176C127.939 16.5173 128.093 16.9707 128.104 17.536C128.104 18.0373 127.965 18.4853 127.688 18.88C127.411 19.2747 127.016 19.584 126.504 19.808C126.003 20.032 125.411 20.144 124.728 20.144Z" fill="#ECEAE7"/>
<path d="M11.6667 3.5H4.66667C4.35725 3.5 4.0605 3.62292 3.84171 3.84171C3.62292 4.0605 3.5 4.35725 3.5 4.66667V11.6667C3.5 11.9761 3.62292 12.2728 3.84171 12.4916C4.0605 12.7104 4.35725 12.8333 4.66667 12.8333H11.6667C11.9761 12.8333 12.2728 12.7104 12.4916 12.4916C12.7104 12.2728 12.8333 11.9761 12.8333 11.6667V4.66667C12.8333 4.35725 12.7104 4.0605 12.4916 3.84171C12.2728 3.62292 11.9761 3.5 11.6667 3.5ZM23.3333 15.1667H16.3333C16.0239 15.1667 15.7272 15.2896 15.5084 15.5084C15.2896 15.7272 15.1667 16.0239 15.1667 16.3333V23.3333C15.1667 23.6428 15.2896 23.9395 15.5084 24.1583C15.7272 24.3771 16.0239 24.5 16.3333 24.5H23.3333C23.6428 24.5 23.9395 24.3771 24.1583 24.1583C24.3771 23.9395 24.5 23.6428 24.5 23.3333V16.3333C24.5 16.0239 24.3771 15.7272 24.1583 15.5084C23.9395 15.2896 23.6428 15.1667 23.3333 15.1667ZM19.8333 3.5C17.2597 3.5 15.1667 5.593 15.1667 8.16667C15.1667 10.7403 17.2597 12.8333 19.8333 12.8333C22.407 12.8333 24.5 10.7403 24.5 8.16667C24.5 5.593 22.407 3.5 19.8333 3.5ZM8.16667 15.1667C5.593 15.1667 3.5 17.2597 3.5 19.8333C3.5 22.407 5.593 24.5 8.16667 24.5C10.7403 24.5 12.8333 22.407 12.8333 19.8333C12.8333 17.2597 10.7403 15.1667 8.16667 15.1667Z" fill="#ECEAE7"/>
</svg>
