<svg width="32" height="32" viewBox="0 0 32 32" fill="none" xmlns="http://www.w3.org/2000/svg">
<path d="M7.44002 7.44012C7.72127 7.15922 8.10252 7.00144 8.50002 7.00144C8.89752 7.00144 9.27877 7.15922 9.56002 7.44012L16 13.8801L22.44 7.44012C22.6234 7.24267 22.8566 7.09832 23.1151 7.0223C23.3736 6.94627 23.6478 6.94137 23.9088 7.00811C24.1699 7.07486 24.4081 7.21078 24.5984 7.40156C24.7887 7.59233 24.924 7.8309 24.99 8.09212C25.0569 8.35287 25.0522 8.62681 24.9765 8.88514C24.9009 9.14347 24.757 9.37663 24.56 9.56012L18.12 16.0001L24.56 22.4401C24.7575 22.6235 24.9018 22.8567 24.9778 23.1152C25.0539 23.3737 25.0588 23.6479 24.992 23.9089C24.9253 24.17 24.7894 24.4082 24.5986 24.5985C24.4078 24.7887 24.1692 24.924 23.908 24.9901C23.6473 25.0569 23.3733 25.0523 23.115 24.9766C22.8567 24.901 22.6235 24.7571 22.44 24.5601L16 18.1201L9.56002 24.5601C9.2755 24.8249 8.8994 24.9691 8.51076 24.9624C8.12213 24.9557 7.75123 24.7986 7.47602 24.5241C7.20154 24.2489 7.04443 23.878 7.03771 23.4894C7.031 23.1007 7.17521 22.7246 7.44002 22.4401L13.88 16.0001L7.44002 9.56012C7.15912 9.27887 7.00134 8.89762 7.00134 8.50012C7.00134 8.10261 7.15912 7.72137 7.44002 7.44012Z" fill="#ECEAE7"/>
</svg>
