<svg width="41" height="44" viewBox="0 0 41 44" fill="none" xmlns="http://www.w3.org/2000/svg">
<path d="M12.3735 3C11.3385 3 10.5 3.84 10.5 4.875V19.1175C10.5 20.1525 11.34 20.9925 12.3735 20.9925H13.1235C14.1585 20.9925 14.997 20.1525 14.997 19.1175V4.8735C14.997 3.8385 14.157 3 13.122 3H12.3735ZM18.369 3C17.334 3 16.494 3.84 16.494 4.875V19.1175C16.494 20.1525 17.334 20.9925 18.369 20.9925H19.119C19.6158 20.9917 20.0919 20.7938 20.4429 20.4423C20.7939 20.0907 20.991 19.6143 20.991 19.1175V4.8735C20.9906 4.37674 20.7931 3.90044 20.4418 3.54917C20.0906 3.19791 19.6143 3.0004 19.1175 3H18.369ZM26.958 7.1655C26.7782 6.71835 26.4329 6.3577 25.9941 6.15852C25.5552 5.95933 25.0565 5.93694 24.6015 6.096L23.7285 6.402C23.4896 6.48586 23.2702 6.61724 23.0835 6.7882C22.8967 6.95916 22.7465 7.16617 22.642 7.39675C22.5374 7.62732 22.4806 7.87669 22.475 8.1298C22.4695 8.38292 22.5152 8.63454 22.6095 8.8695L27.015 19.8255C27.3885 20.7555 28.425 21.225 29.3715 20.895L30.2445 20.589C30.4836 20.5051 30.7032 20.3737 30.89 20.2027C31.0769 20.0316 31.2271 19.8244 31.3317 19.5937C31.4363 19.3629 31.493 19.1134 31.4985 18.8601C31.504 18.6068 31.458 18.355 31.3635 18.12L26.958 7.1655Z" fill="#6C6C6C"/>
<path d="M2.268 37.896H5.088V39H0.9V30.66H2.268V37.896ZM6.92803 31.512C6.68003 31.512 6.47203 31.428 6.30403 31.26C6.13603 31.092 6.05203 30.884 6.05203 30.636C6.05203 30.388 6.13603 30.18 6.30403 30.012C6.47203 29.844 6.68003 29.76 6.92803 29.76C7.16803 29.76 7.37203 29.844 7.54003 30.012C7.70803 30.18 7.79203 30.388 7.79203 30.636C7.79203 30.884 7.70803 31.092 7.54003 31.26C7.37203 31.428 7.16803 31.512 6.92803 31.512ZM7.60003 32.388V39H6.23203V32.388H7.60003ZM10.7641 33.372C10.9961 33.052 11.3121 32.792 11.7121 32.592C12.1201 32.384 12.5721 32.28 13.0681 32.28C13.6521 32.28 14.1801 32.42 14.6521 32.7C15.1241 32.98 15.4961 33.38 15.7681 33.9C16.0401 34.412 16.1761 35 16.1761 35.664C16.1761 36.328 16.0401 36.924 15.7681 37.452C15.4961 37.972 15.1201 38.38 14.6401 38.676C14.1681 38.964 13.6441 39.108 13.0681 39.108C12.5561 39.108 12.1001 39.008 11.7001 38.808C11.3081 38.608 10.9961 38.352 10.7641 38.04V39H9.39609V30.12H10.7641V33.372ZM14.7841 35.664C14.7841 35.208 14.6881 34.816 14.4961 34.488C14.3121 34.152 14.0641 33.9 13.7521 33.732C13.4481 33.556 13.1201 33.468 12.7681 33.468C12.4241 33.468 12.0961 33.556 11.7841 33.732C11.4801 33.908 11.2321 34.164 11.0401 34.5C10.8561 34.836 10.7641 35.232 10.7641 35.688C10.7641 36.144 10.8561 36.544 11.0401 36.888C11.2321 37.224 11.4801 37.48 11.7841 37.656C12.0961 37.832 12.4241 37.92 12.7681 37.92C13.1201 37.92 13.4481 37.832 13.7521 37.656C14.0641 37.472 14.3121 37.208 14.4961 36.864C14.6881 36.52 14.7841 36.12 14.7841 35.664ZM18.8969 33.348C19.0969 33.012 19.3609 32.752 19.6889 32.568C20.0249 32.376 20.4209 32.28 20.8769 32.28V33.696H20.5289C19.9929 33.696 19.5849 33.832 19.3049 34.104C19.0329 34.376 18.8969 34.848 18.8969 35.52V39H17.5289V32.388H18.8969V33.348ZM21.6784 35.664C21.6784 35 21.8144 34.412 22.0864 33.9C22.3664 33.388 22.7424 32.992 23.2144 32.712C23.6944 32.424 24.2224 32.28 24.7984 32.28C25.3184 32.28 25.7704 32.384 26.1544 32.592C26.5464 32.792 26.8584 33.044 27.0904 33.348V32.388H28.4704V39H27.0904V38.016C26.8584 38.328 26.5424 38.588 26.1424 38.796C25.7424 39.004 25.2864 39.108 24.7744 39.108C24.2064 39.108 23.6864 38.964 23.2144 38.676C22.7424 38.38 22.3664 37.972 22.0864 37.452C21.8144 36.924 21.6784 36.328 21.6784 35.664ZM27.0904 35.688C27.0904 35.232 26.9944 34.836 26.8024 34.5C26.6184 34.164 26.3744 33.908 26.0704 33.732C25.7664 33.556 25.4384 33.468 25.0864 33.468C24.7344 33.468 24.4064 33.556 24.1024 33.732C23.7984 33.9 23.5504 34.152 23.3584 34.488C23.1744 34.816 23.0824 35.208 23.0824 35.664C23.0824 36.12 23.1744 36.52 23.3584 36.864C23.5504 37.208 23.7984 37.472 24.1024 37.656C24.4144 37.832 24.7424 37.92 25.0864 37.92C25.4384 37.92 25.7664 37.832 26.0704 37.656C26.3744 37.48 26.6184 37.224 26.8024 36.888C26.9944 36.544 27.0904 36.144 27.0904 35.688ZM31.6352 33.348C31.8352 33.012 32.0992 32.752 32.4272 32.568C32.7632 32.376 33.1592 32.28 33.6152 32.28V33.696H33.2672C32.7312 33.696 32.3232 33.832 32.0432 34.104C31.7712 34.376 31.6352 34.848 31.6352 35.52V39H30.2672V32.388H31.6352V33.348ZM40.8247 32.388L36.7687 42.108H35.3527L36.6967 38.892L34.0927 32.388H35.6167L37.4767 37.428L39.4087 32.388H40.8247Z" fill="#6C6C6C"/>
</svg>
