<svg width="36" height="44" viewBox="0 0 36 44" fill="none" xmlns="http://www.w3.org/2000/svg">
<path d="M26.83 8.01002L20.28 2.77002C19 1.75002 17 1.74002 15.73 2.76002L9.18002 8.01002C8.24002 8.76002 7.67002 10.26 7.87002 11.44L9.13002 18.98C9.42002 20.67 10.99 22 12.7 22H23.3C24.99 22 26.59 20.64 26.88 18.97L28.14 11.43C28.32 10.26 27.75 8.76002 26.83 8.01002ZM18.75 18C18.75 18.41 18.41 18.75 18 18.75C17.59 18.75 17.25 18.41 17.25 18V15C17.25 14.59 17.59 14.25 18 14.25C18.41 14.25 18.75 14.59 18.75 15V18Z" fill="#6B6B6B"/>
<path d="M7.56 30.66V39H6.192V35.352H2.268V39H0.9V30.66H2.268V34.236H6.192V30.66H7.56ZM12.2289 39.108C11.6049 39.108 11.0409 38.968 10.5369 38.688C10.0329 38.4 9.63694 38 9.34894 37.488C9.06094 36.968 8.91694 36.368 8.91694 35.688C8.91694 35.016 9.06494 34.42 9.36094 33.9C9.65694 33.38 10.0609 32.98 10.5729 32.7C11.0849 32.42 11.6569 32.28 12.2889 32.28C12.9209 32.28 13.4929 32.42 14.0049 32.7C14.5169 32.98 14.9209 33.38 15.2169 33.9C15.5129 34.42 15.6609 35.016 15.6609 35.688C15.6609 36.36 15.5089 36.956 15.2049 37.476C14.9009 37.996 14.4849 38.4 13.9569 38.688C13.4369 38.968 12.8609 39.108 12.2289 39.108ZM12.2289 37.92C12.5809 37.92 12.9089 37.836 13.2129 37.668C13.5249 37.5 13.7769 37.248 13.9689 36.912C14.1609 36.576 14.2569 36.168 14.2569 35.688C14.2569 35.208 14.1649 34.804 13.9809 34.476C13.7969 34.14 13.5529 33.888 13.2489 33.72C12.9449 33.552 12.6169 33.468 12.2649 33.468C11.9129 33.468 11.5849 33.552 11.2809 33.72C10.9849 33.888 10.7489 34.14 10.5729 34.476C10.3969 34.804 10.3089 35.208 10.3089 35.688C10.3089 36.4 10.4889 36.952 10.8489 37.344C11.2169 37.728 11.6769 37.92 12.2289 37.92ZM25.0173 32.28C25.5373 32.28 26.0013 32.388 26.4093 32.604C26.8253 32.82 27.1493 33.14 27.3813 33.564C27.6213 33.988 27.7413 34.5 27.7413 35.1V39H26.3853V35.304C26.3853 34.712 26.2373 34.26 25.9413 33.948C25.6453 33.628 25.2413 33.468 24.7293 33.468C24.2173 33.468 23.8093 33.628 23.5053 33.948C23.2093 34.26 23.0613 34.712 23.0613 35.304V39H21.7053V35.304C21.7053 34.712 21.5573 34.26 21.2613 33.948C20.9653 33.628 20.5613 33.468 20.0493 33.468C19.5373 33.468 19.1293 33.628 18.8253 33.948C18.5293 34.26 18.3813 34.712 18.3813 35.304V39H17.0133V32.388H18.3813V33.144C18.6053 32.872 18.8893 32.66 19.2333 32.508C19.5773 32.356 19.9453 32.28 20.3373 32.28C20.8653 32.28 21.3373 32.392 21.7533 32.616C22.1693 32.84 22.4893 33.164 22.7133 33.588C22.9133 33.188 23.2253 32.872 23.6493 32.64C24.0733 32.4 24.5293 32.28 25.0173 32.28ZM35.542 35.532C35.542 35.78 35.526 36.004 35.494 36.204H30.442C30.482 36.732 30.678 37.156 31.03 37.476C31.382 37.796 31.814 37.956 32.326 37.956C33.062 37.956 33.582 37.648 33.886 37.032H35.362C35.162 37.64 34.798 38.14 34.27 38.532C33.75 38.916 33.102 39.108 32.326 39.108C31.694 39.108 31.126 38.968 30.622 38.688C30.126 38.4 29.734 38 29.446 37.488C29.166 36.968 29.026 36.368 29.026 35.688C29.026 35.008 29.162 34.412 29.434 33.9C29.714 33.38 30.102 32.98 30.598 32.7C31.102 32.42 31.678 32.28 32.326 32.28C32.95 32.28 33.506 32.416 33.994 32.688C34.482 32.96 34.862 33.344 35.134 33.84C35.406 34.328 35.542 34.892 35.542 35.532ZM34.114 35.1C34.106 34.596 33.926 34.192 33.574 33.888C33.222 33.584 32.786 33.432 32.266 33.432C31.794 33.432 31.39 33.584 31.054 33.888C30.718 34.184 30.518 34.588 30.454 35.1H34.114Z" fill="#6B6B6B"/>
</svg>
