<svg width="24" height="24" viewBox="0 0 24 24" fill="none" xmlns="http://www.w3.org/2000/svg">
<g opacity="0.88">
<path d="M20.25 2.625H15.75C15.4516 2.625 15.1655 2.74353 14.9545 2.9545C14.7435 3.16548 14.625 3.45163 14.625 3.75C14.625 4.04837 14.7435 4.33452 14.9545 4.5455C15.1655 4.75647 15.4516 4.875 15.75 4.875H17.5312L14.4656 7.94062C12.871 6.74886 10.8841 6.20529 8.90486 6.41928C6.92561 6.63327 5.10085 7.58894 3.79776 9.094C2.49467 10.5991 1.80997 12.5418 1.88142 14.5313C1.95287 16.5208 2.77518 18.4094 4.18288 19.8171C5.59058 21.2248 7.4792 22.0471 9.4687 22.1186C11.4582 22.19 13.4009 21.5053 14.906 20.2022C16.4111 18.8992 17.3667 17.0744 17.5807 15.0951C17.7947 13.1159 17.2511 11.129 16.0594 9.53437L19.125 6.46875V8.25C19.125 8.54837 19.2435 8.83452 19.4545 9.0455C19.6655 9.25647 19.9516 9.375 20.25 9.375C20.5484 9.375 20.8345 9.25647 21.0455 9.0455C21.2565 8.83452 21.375 8.54837 21.375 8.25V3.75C21.375 3.45163 21.2565 3.16548 21.0455 2.9545C20.8345 2.74353 20.5484 2.625 20.25 2.625ZM13.725 18.225C12.9386 19.0124 11.9363 19.5488 10.845 19.7664C9.75367 19.984 8.62231 19.873 7.59407 19.4475C6.56583 19.022 5.68691 18.301 5.06852 17.3758C4.45013 16.4506 4.12005 15.3628 4.12005 14.25C4.12005 13.1372 4.45013 12.0494 5.06852 11.1242C5.68691 10.199 6.56583 9.47805 7.59407 9.05251C8.62231 8.62697 9.75367 8.51599 10.845 8.7336C11.9363 8.95121 12.9386 9.48763 13.725 10.275C14.7784 11.3297 15.3701 12.7594 15.3701 14.25C15.3701 15.7406 14.7784 17.1703 13.725 18.225Z" fill="black"/>
</g>
</svg>
