<svg width="24" height="24" viewBox="0 0 24 24" fill="none" xmlns="http://www.w3.org/2000/svg">
<path d="M16.477 3.00406C16.644 3.01906 16.717 3.22306 16.597 3.34206L8.277 11.6621C8.18302 11.7561 8.11572 11.8734 8.082 12.0021L7.082 15.8321C7.04899 15.9586 7.04966 16.0916 7.08393 16.2179C7.11821 16.3441 7.18491 16.4592 7.2774 16.5517C7.36989 16.6442 7.48496 16.7109 7.6112 16.7451C7.73743 16.7794 7.87043 16.7801 7.997 16.7471L11.826 15.7471C11.9547 15.713 12.072 15.6454 12.166 15.5511L20.604 7.11306C20.6304 7.08596 20.664 7.06699 20.7009 7.05839C20.7377 7.0498 20.7762 7.05194 20.8119 7.06457C20.8476 7.07719 20.8789 7.09977 20.9021 7.12963C20.9253 7.15949 20.9395 7.19539 20.943 7.23306C21.2941 10.5827 21.2739 13.9609 20.883 17.3061C20.66 19.2111 19.129 20.7061 17.231 20.9191C13.7547 21.3045 10.2464 21.3045 6.77 20.9191C4.871 20.7061 3.34 19.2111 3.117 17.3061C2.70473 13.7811 2.70473 10.22 3.117 6.69506C3.34 4.78906 4.871 3.29406 6.77 3.08206C9.99452 2.72472 13.2472 2.69858 16.477 3.00406Z" fill="#ECEAE7"/>
<path d="M17.823 4.23702C17.8462 4.21374 17.8738 4.19527 17.9042 4.18266C17.9346 4.17006 17.9671 4.16357 18 4.16357C18.0329 4.16357 18.0654 4.17006 18.0958 4.18266C18.1262 4.19527 18.1538 4.21374 18.177 4.23702L19.591 5.65202C19.6377 5.69888 19.6639 5.76235 19.6639 5.82852C19.6639 5.89469 19.6377 5.95816 19.591 6.00502L11.298 14.3C11.2664 14.3313 11.2271 14.3538 11.184 14.365L9.27 14.865C9.22781 14.876 9.18348 14.8758 9.1414 14.8644C9.09932 14.853 9.06096 14.8307 9.03013 14.7999C8.9993 14.7691 8.97707 14.7307 8.96565 14.6886C8.95422 14.6465 8.954 14.6022 8.965 14.56L9.465 12.646C9.47613 12.6029 9.49857 12.5636 9.53 12.532L17.823 4.23702Z" fill="#ECEAE7"/>
</svg>
