<svg width="98" height="28" viewBox="0 0 98 28" fill="none" xmlns="http://www.w3.org/2000/svg">
<path d="M7.58331 20.4168L16.3333 16.3335L20.4166 7.5835L11.6666 11.6668L7.58331 20.4168ZM14 15.1668C13.6694 15.1668 13.3921 15.0548 13.1681 14.8308C12.9441 14.6068 12.8325 14.3299 12.8333 14.0002C12.8333 13.6696 12.9453 13.3923 13.1693 13.1683C13.3933 12.9443 13.6702 12.8327 14 12.8335C14.3305 12.8335 14.6078 12.9455 14.8318 13.1695C15.0558 13.3935 15.1674 13.6704 15.1666 14.0002C15.1666 14.3307 15.0546 14.608 14.8306 14.832C14.6066 15.056 14.3298 15.1676 14 15.1668ZM14 25.6668C12.3861 25.6668 10.8694 25.3604 9.44998 24.7475C8.03054 24.1346 6.79581 23.3036 5.74581 22.2543C4.69581 21.2043 3.86476 19.9696 3.25265 18.5502C2.64054 17.1307 2.33409 15.6141 2.33331 14.0002C2.33331 12.3863 2.63976 10.8696 3.25265 9.45016C3.86554 8.03072 4.69659 6.796 5.74581 5.746C6.79581 4.696 8.03054 3.86494 9.44998 3.25283C10.8694 2.64072 12.3861 2.33427 14 2.3335C15.6139 2.3335 17.1305 2.63994 18.55 3.25283C19.9694 3.86572 21.2041 4.69677 22.2541 5.746C23.3041 6.796 24.1356 8.03072 24.7485 9.45016C25.3614 10.8696 25.6674 12.3863 25.6666 14.0002C25.6666 15.6141 25.3602 17.1307 24.7473 18.5502C24.1344 19.9696 23.3034 21.2043 22.2541 22.2543C21.2041 23.3043 19.9694 24.1358 18.55 24.7487C17.1305 25.3615 15.6139 25.6676 14 25.6668Z" fill="#ECEAE7"/>
<path d="M43.024 10.352V13.616H46.864V15.104H43.024V18.512H47.344V20H41.2V8.864H47.344V10.352H43.024ZM53.3666 15.536L56.2146 20H54.1506L52.2466 17.008L50.4546 20H48.5506L51.3986 15.664L48.5506 11.184H50.6146L52.5186 14.176L54.3106 11.184H56.2146L53.3666 15.536ZM59.399 12.48C59.7083 12.0747 60.1297 11.7333 60.663 11.456C61.1963 11.1787 61.799 11.04 62.471 11.04C63.239 11.04 63.9377 11.232 64.567 11.616C65.207 11.9893 65.7083 12.5173 66.071 13.2C66.4337 13.8827 66.615 14.6667 66.615 15.552C66.615 16.4373 66.4337 17.232 66.071 17.936C65.7083 18.6293 65.207 19.1733 64.567 19.568C63.9377 19.952 63.239 20.144 62.471 20.144C61.799 20.144 61.2017 20.0107 60.679 19.744C60.1563 19.4667 59.7297 19.1253 59.399 18.72V24.192H57.575V11.184H59.399V12.48ZM64.759 15.552C64.759 14.944 64.631 14.4213 64.375 13.984C64.1297 13.536 63.799 13.2 63.383 12.976C62.9777 12.7413 62.5403 12.624 62.071 12.624C61.6123 12.624 61.175 12.7413 60.759 12.976C60.3537 13.2107 60.023 13.552 59.767 14C59.5217 14.448 59.399 14.976 59.399 15.584C59.399 16.192 59.5217 16.7253 59.767 17.184C60.023 17.632 60.3537 17.9733 60.759 18.208C61.175 18.4427 61.6123 18.56 62.071 18.56C62.5403 18.56 62.9777 18.4427 63.383 18.208C63.799 17.9627 64.1297 17.6107 64.375 17.152C64.631 16.6933 64.759 16.16 64.759 15.552ZM70.2428 8.16V20H68.4188V8.16H70.2428ZM76.4615 20.144C75.6295 20.144 74.8775 19.9573 74.2055 19.584C73.5335 19.2 73.0055 18.6667 72.6215 17.984C72.2375 17.2907 72.0455 16.4907 72.0455 15.584C72.0455 14.688 72.2428 13.8933 72.6375 13.2C73.0322 12.5067 73.5708 11.9733 74.2535 11.6C74.9362 11.2267 75.6988 11.04 76.5415 11.04C77.3842 11.04 78.1468 11.2267 78.8295 11.6C79.5122 11.9733 80.0508 12.5067 80.4455 13.2C80.8402 13.8933 81.0375 14.688 81.0375 15.584C81.0375 16.48 80.8348 17.2747 80.4295 17.968C80.0242 18.6613 79.4695 19.2 78.7655 19.584C78.0722 19.9573 77.3042 20.144 76.4615 20.144ZM76.4615 18.56C76.9308 18.56 77.3682 18.448 77.7735 18.224C78.1895 18 78.5255 17.664 78.7815 17.216C79.0375 16.768 79.1655 16.224 79.1655 15.584C79.1655 14.944 79.0428 14.4053 78.7975 13.968C78.5522 13.52 78.2268 13.184 77.8215 12.96C77.4162 12.736 76.9788 12.624 76.5095 12.624C76.0402 12.624 75.6028 12.736 75.1975 12.96C74.8028 13.184 74.4882 13.52 74.2535 13.968C74.0188 14.4053 73.9015 14.944 73.9015 15.584C73.9015 16.5333 74.1415 17.2693 74.6215 17.792C75.1122 18.304 75.7255 18.56 76.4615 18.56ZM84.6646 12.464C84.9313 12.016 85.2833 11.6693 85.7206 11.424C86.1686 11.168 86.6966 11.04 87.3046 11.04V12.928H86.8406C86.126 12.928 85.582 13.1093 85.2086 13.472C84.846 13.8347 84.6646 14.464 84.6646 15.36V20H82.8406V11.184H84.6646V12.464ZM97.0613 15.376C97.0613 15.7067 97.0399 16.0053 96.9973 16.272H90.2613C90.3146 16.976 90.5759 17.5413 91.0453 17.968C91.5146 18.3947 92.0906 18.608 92.7733 18.608C93.7546 18.608 94.4479 18.1973 94.8533 17.376H96.8212C96.5546 18.1867 96.0693 18.8533 95.3653 19.376C94.6719 19.888 93.8079 20.144 92.7733 20.144C91.9306 20.144 91.1733 19.9573 90.5013 19.584C89.8399 19.2 89.3173 18.6667 88.9333 17.984C88.5599 17.2907 88.3733 16.4907 88.3733 15.584C88.3733 14.6773 88.5546 13.8827 88.9173 13.2C89.2906 12.5067 89.8079 11.9733 90.4693 11.6C91.1413 11.2267 91.9093 11.04 92.7733 11.04C93.6053 11.04 94.3466 11.2213 94.9973 11.584C95.6479 11.9467 96.1546 12.4587 96.5173 13.12C96.8799 13.7707 97.0613 14.5227 97.0613 15.376ZM95.1573 14.8C95.1466 14.128 94.9066 13.5893 94.4373 13.184C93.9679 12.7787 93.3866 12.576 92.6933 12.576C92.0639 12.576 91.5253 12.7787 91.0773 13.184C90.6293 13.5787 90.3626 14.1173 90.2773 14.8H95.1573Z" fill="#ECEAE7"/>
</svg>
