<svg width="26" height="26" viewBox="0 0 26 26" fill="none" xmlns="http://www.w3.org/2000/svg">
<g clip-path="url(#clip0_185_39193)">
<path d="M24.565 26.0001C25.3574 26.0001 26 25.3576 26 24.5651V1.43498C26 0.642383 25.3574 0 24.565 0H1.43498C0.642281 0 0 0.642383 0 1.43498V24.5651C0 25.3576 0.642281 26.0001 1.43498 26.0001H24.565Z" fill="#1877F2"/>
<path d="M16.1074 25.9999V15.9313H19.4871L19.993 12.0075H16.1074V9.50213C16.1074 8.36605 16.4229 7.59184 18.0521 7.59184L20.1299 7.59093V4.08144C19.7704 4.0336 18.537 3.92676 17.1022 3.92676C14.1063 3.92676 12.0553 5.75539 12.0553 9.11366V12.0075H8.66699V15.9313H12.0553V25.9999H16.1074Z" fill="white"/>
</g>
<defs>
<clipPath id="clip0_185_39193">
<rect width="26" height="26" rx="13" fill="white"/>
</clipPath>
</defs>
</svg>
