<svg width="24" height="24" viewBox="0 0 24 24" fill="none" xmlns="http://www.w3.org/2000/svg">
<path d="M12 23L9 20H5C4.45 20 3.979 19.804 3.587 19.412C3.195 19.02 2.99934 18.5493 3 18V4C3 3.45 3.196 2.979 3.588 2.587C3.98 2.195 4.45067 1.99934 5 2H19C19.55 2 20.021 2.196 20.413 2.588C20.805 2.98 21.0007 3.45067 21 4V18C21 18.55 20.804 19.021 20.412 19.413C20.02 19.805 19.5493 20.0007 19 20H15L12 23ZM11.9 17C12.25 17 12.546 16.879 12.788 16.637C13.03 16.395 13.1507 16.0993 13.15 15.75C13.15 15.4 13.029 15.104 12.787 14.862C12.545 14.62 12.2493 14.4993 11.9 14.5C11.55 14.5 11.254 14.621 11.012 14.863C10.77 15.105 10.6493 15.4007 10.65 15.75C10.65 16.1 10.771 16.396 11.013 16.638C11.255 16.88 11.5507 17.0007 11.9 17ZM11 13.15H12.85C12.85 12.8667 12.8627 12.625 12.888 12.425C12.9133 12.225 12.9673 12.0333 13.05 11.85C13.1333 11.6667 13.2373 11.496 13.362 11.338C13.4867 11.18 13.666 10.984 13.9 10.75C14.4833 10.1667 14.896 9.679 15.138 9.287C15.38 8.895 15.5007 8.44934 15.5 7.95C15.5 7.06667 15.2 6.354 14.6 5.812C14 5.27 13.1917 4.99934 12.175 5C11.2583 5 10.4793 5.225 9.838 5.675C9.19667 6.125 8.75067 6.75 8.5 7.55L10.15 8.2C10.2667 7.75 10.5 7.38767 10.85 7.113C11.2 6.83834 11.6083 6.70067 12.075 6.7C12.525 6.7 12.9 6.821 13.2 7.063C13.5 7.305 13.65 7.62567 13.65 8.025C13.65 8.30833 13.5583 8.60834 13.375 8.925C13.1917 9.24167 12.8833 9.59167 12.45 9.975C12.1667 10.2083 11.9373 10.4377 11.762 10.663C11.5867 10.8883 11.441 11.1257 11.325 11.375C11.2083 11.625 11.125 11.8877 11.075 12.163C11.025 12.4383 11 12.7673 11 13.15Z" fill="#ECEAE7"/>
</svg>
