<svg width="24" height="25" viewBox="0 0 24 25" fill="none" xmlns="http://www.w3.org/2000/svg">
<g clip-path="url(#clip0_185_39180)">
<path d="M23.9888 12.511C23.9888 11.5047 23.9071 10.7703 23.7304 10.0088H12.2393V14.5508H18.9843C18.8484 15.6795 18.114 17.3794 16.4821 18.5217L16.4592 18.6737L20.0925 21.4884L20.3442 21.5135C22.656 19.3784 23.9888 16.2371 23.9888 12.511Z" fill="#4285F4"/>
<path d="M12.2393 24.4786C15.5438 24.4786 18.3179 23.3906 20.3442 21.514L16.4821 18.5222C15.4486 19.2429 14.0615 19.7461 12.2393 19.7461C9.00273 19.7461 6.25576 17.6111 5.27654 14.6602L5.13301 14.6723L1.35507 17.5961L1.30566 17.7335C3.31829 21.7315 7.45238 24.4786 12.2393 24.4786Z" fill="#34A853"/>
<path d="M5.27634 14.6597C5.01797 13.8982 4.86844 13.0822 4.86844 12.2391C4.86844 11.3959 5.01797 10.58 5.26275 9.81849L5.25591 9.6563L1.43062 6.68555L1.30547 6.74508C0.475969 8.40417 0 10.2673 0 12.2391C0 14.211 0.475969 16.074 1.30547 17.733L5.27634 14.6597Z" fill="#FBBC05"/>
<path d="M12.2393 4.73241C14.5374 4.73241 16.0877 5.72512 16.9717 6.55472L20.4258 3.18216C18.3044 1.21031 15.5438 0 12.2393 0C7.45238 0 3.31829 2.74697 1.30566 6.74503L5.26295 9.81844C6.25576 6.86747 9.00273 4.73241 12.2393 4.73241Z" fill="#EB4335"/>
</g>
<defs>
<clipPath id="clip0_185_39180">
<rect width="24" height="24.5625" fill="black"/>
</clipPath>
</defs>
</svg>
