<svg width="88" height="28" viewBox="0 0 88 28" fill="none" xmlns="http://www.w3.org/2000/svg">
<path d="M24.3017 9.34518L16.66 3.23185C15.1667 2.04185 12.8333 2.03018 11.3517 3.22018L3.71 9.34518C2.61333 10.2202 1.94833 11.9702 2.18166 13.3468L3.65166 22.1435C3.99 24.1152 5.82166 25.6669 7.81666 25.6669H20.1833C22.155 25.6669 24.0217 24.0802 24.36 22.1318L25.83 13.3352C26.04 11.9702 25.375 10.2202 24.3017 9.34518ZM14.875 21.0002C14.875 21.4785 14.4783 21.8752 14 21.8752C13.5217 21.8752 13.125 21.4785 13.125 21.0002V17.5002C13.125 17.0218 13.5217 16.6252 14 16.6252C14.4783 16.6252 14.875 17.0218 14.875 17.5002V21.0002Z" fill="#ECEAE7"/>
<path d="M50.08 8.88V20H48.256V15.136H43.024V20H41.2V8.88H43.024V13.648H48.256V8.88H50.08ZM56.3053 20.144C55.4733 20.144 54.7213 19.9573 54.0493 19.584C53.3773 19.2 52.8493 18.6667 52.4653 17.984C52.0813 17.2907 51.8893 16.4907 51.8893 15.584C51.8893 14.688 52.0866 13.8933 52.4813 13.2C52.8759 12.5067 53.4146 11.9733 54.0973 11.6C54.7799 11.2267 55.5426 11.04 56.3853 11.04C57.2279 11.04 57.9906 11.2267 58.6733 11.6C59.3559 11.9733 59.8946 12.5067 60.2893 13.2C60.6839 13.8933 60.8813 14.688 60.8813 15.584C60.8813 16.48 60.6786 17.2747 60.2733 17.968C59.8679 18.6613 59.3133 19.2 58.6093 19.584C57.9159 19.9573 57.1479 20.144 56.3053 20.144ZM56.3053 18.56C56.7746 18.56 57.2119 18.448 57.6173 18.224C58.0333 18 58.3693 17.664 58.6253 17.216C58.8813 16.768 59.0093 16.224 59.0093 15.584C59.0093 14.944 58.8866 14.4053 58.6413 13.968C58.3959 13.52 58.0706 13.184 57.6653 12.96C57.2599 12.736 56.8226 12.624 56.3533 12.624C55.8839 12.624 55.4466 12.736 55.0413 12.96C54.6466 13.184 54.3319 13.52 54.0973 13.968C53.8626 14.4053 53.7453 14.944 53.7453 15.584C53.7453 16.5333 53.9853 17.2693 54.4653 17.792C54.9559 18.304 55.5693 18.56 56.3053 18.56ZM73.3564 11.04C74.0497 11.04 74.6684 11.184 75.2124 11.472C75.767 11.76 76.199 12.1867 76.5084 12.752C76.8284 13.3173 76.9884 14 76.9884 14.8V20H75.1804V15.072C75.1804 14.2827 74.983 13.68 74.5884 13.264C74.1937 12.8373 73.655 12.624 72.9724 12.624C72.2897 12.624 71.7457 12.8373 71.3404 13.264C70.9457 13.68 70.7484 14.2827 70.7484 15.072V20H68.9404V15.072C68.9404 14.2827 68.743 13.68 68.3484 13.264C67.9537 12.8373 67.415 12.624 66.7324 12.624C66.0497 12.624 65.5057 12.8373 65.1004 13.264C64.7057 13.68 64.5084 14.2827 64.5084 15.072V20H62.6844V11.184H64.5084V12.192C64.807 11.8293 65.1857 11.5467 65.6444 11.344C66.103 11.1413 66.5937 11.04 67.1164 11.04C67.8204 11.04 68.4497 11.1893 69.0044 11.488C69.559 11.7867 69.9857 12.2187 70.2844 12.784C70.551 12.2507 70.967 11.8293 71.5324 11.52C72.0977 11.2 72.7057 11.04 73.3564 11.04ZM87.3894 15.376C87.3894 15.7067 87.368 16.0053 87.3254 16.272H80.5894C80.6427 16.976 80.904 17.5413 81.3734 17.968C81.8427 18.3947 82.4187 18.608 83.1014 18.608C84.0827 18.608 84.776 18.1973 85.1814 17.376H87.1494C86.8827 18.1867 86.3974 18.8533 85.6934 19.376C85 19.888 84.136 20.144 83.1014 20.144C82.2587 20.144 81.5014 19.9573 80.8294 19.584C80.168 19.2 79.6454 18.6667 79.2614 17.984C78.888 17.2907 78.7014 16.4907 78.7014 15.584C78.7014 14.6773 78.8827 13.8827 79.2454 13.2C79.6187 12.5067 80.136 11.9733 80.7974 11.6C81.4694 11.2267 82.2374 11.04 83.1014 11.04C83.9334 11.04 84.6747 11.2213 85.3254 11.584C85.976 11.9467 86.4827 12.4587 86.8454 13.12C87.208 13.7707 87.3894 14.5227 87.3894 15.376ZM85.4854 14.8C85.4747 14.128 85.2347 13.5893 84.7654 13.184C84.296 12.7787 83.7147 12.576 83.0214 12.576C82.392 12.576 81.8534 12.7787 81.4054 13.184C80.9574 13.5787 80.6907 14.1173 80.6054 14.8H85.4854Z" fill="#ECEAE7"/>
</svg>
