<svg width="94" height="28" viewBox="0 0 94 28" fill="none" xmlns="http://www.w3.org/2000/svg">
<path d="M3.93575 3.5C2.72825 3.5 1.75 4.48 1.75 5.6875V22.3037C1.75 23.5112 2.73 24.4912 3.93575 24.4912H4.81075C6.01825 24.4912 6.9965 23.5112 6.9965 22.3037V5.68575C6.9965 4.47825 6.0165 3.5 4.809 3.5H3.93575ZM10.9305 3.5C9.723 3.5 8.743 4.48 8.743 5.6875V22.3037C8.743 23.5112 9.723 24.4912 10.9305 24.4912H11.8055C12.3851 24.4903 12.9406 24.2594 13.35 23.8493C13.7595 23.4392 13.9895 22.8833 13.9895 22.3037V5.68575C13.989 5.1062 13.7586 4.55051 13.3488 4.1407C12.939 3.7309 12.3833 3.50046 11.8038 3.5H10.9305ZM20.951 8.35975C20.7412 7.83807 20.3384 7.41731 19.8264 7.18494C19.3144 6.95256 18.7325 6.92644 18.2017 7.112L17.1833 7.469C16.9046 7.56684 16.6486 7.72011 16.4307 7.91957C16.2128 8.11903 16.0376 8.36054 15.9156 8.62954C15.7937 8.89854 15.7274 9.18947 15.7209 9.48477C15.7144 9.78007 15.7677 10.0736 15.8778 10.3478L21.0175 23.1297C21.4533 24.2148 22.6625 24.7625 23.7668 24.3775L24.7852 24.0205C25.0642 23.9227 25.3204 23.7693 25.5384 23.5698C25.7564 23.3702 25.9317 23.1285 26.0537 22.8593C26.1757 22.5901 26.2419 22.2989 26.2482 22.0034C26.2546 21.7079 26.201 21.4142 26.0908 21.14L20.951 8.35975Z" fill="#ECEAE7"/>
<path d="M42.024 18.528H45.784V20H40.2V8.88H42.024V18.528ZM48.2374 10.016C47.9067 10.016 47.6294 9.904 47.4054 9.68C47.1814 9.456 47.0694 9.17867 47.0694 8.848C47.0694 8.51733 47.1814 8.24 47.4054 8.016C47.6294 7.792 47.9067 7.68 48.2374 7.68C48.5574 7.68 48.8294 7.792 49.0534 8.016C49.2774 8.24 49.3894 8.51733 49.3894 8.848C49.3894 9.17867 49.2774 9.456 49.0534 9.68C48.8294 9.904 48.5574 10.016 48.2374 10.016ZM49.1334 11.184V20H47.3094V11.184H49.1334ZM53.3521 12.496C53.6615 12.0693 54.0828 11.7227 54.6161 11.456C55.1601 11.1787 55.7628 11.04 56.4241 11.04C57.2028 11.04 57.9068 11.2267 58.5361 11.6C59.1655 11.9733 59.6615 12.5067 60.0241 13.2C60.3868 13.8827 60.5681 14.6667 60.5681 15.552C60.5681 16.4373 60.3868 17.232 60.0241 17.936C59.6615 18.6293 59.1601 19.1733 58.5201 19.568C57.8908 19.952 57.1921 20.144 56.4241 20.144C55.7415 20.144 55.1335 20.0107 54.6001 19.744C54.0775 19.4773 53.6615 19.136 53.3521 18.72V20H51.5281V8.16H53.3521V12.496ZM58.7121 15.552C58.7121 14.944 58.5841 14.4213 58.3281 13.984C58.0828 13.536 57.7521 13.2 57.3361 12.976C56.9308 12.7413 56.4935 12.624 56.0241 12.624C55.5655 12.624 55.1281 12.7413 54.7121 12.976C54.3068 13.2107 53.9761 13.552 53.7201 14C53.4748 14.448 53.3521 14.976 53.3521 15.584C53.3521 16.192 53.4748 16.7253 53.7201 17.184C53.9761 17.632 54.3068 17.9733 54.7121 18.208C55.1281 18.4427 55.5655 18.56 56.0241 18.56C56.4935 18.56 56.9308 18.4427 57.3361 18.208C57.7521 17.9627 58.0828 17.6107 58.3281 17.152C58.5841 16.6933 58.7121 16.16 58.7121 15.552ZM64.1959 12.464C64.4625 12.016 64.8145 11.6693 65.2519 11.424C65.6999 11.168 66.2279 11.04 66.8359 11.04V12.928H66.3719C65.6572 12.928 65.1132 13.1093 64.7399 13.472C64.3772 13.8347 64.1959 14.464 64.1959 15.36V20H62.3719V11.184H64.1959V12.464ZM67.9045 15.552C67.9045 14.6667 68.0858 13.8827 68.4485 13.2C68.8218 12.5173 69.3232 11.9893 69.9525 11.616C70.5925 11.232 71.2965 11.04 72.0645 11.04C72.7578 11.04 73.3605 11.1787 73.8725 11.456C74.3952 11.7227 74.8112 12.0587 75.1205 12.464V11.184H76.9605V20H75.1205V18.688C74.8112 19.104 74.3898 19.4507 73.8565 19.728C73.3232 20.0053 72.7152 20.144 72.0325 20.144C71.2752 20.144 70.5818 19.952 69.9525 19.568C69.3232 19.1733 68.8218 18.6293 68.4485 17.936C68.0858 17.232 67.9045 16.4373 67.9045 15.552ZM75.1205 15.584C75.1205 14.976 74.9925 14.448 74.7365 14C74.4912 13.552 74.1658 13.2107 73.7605 12.976C73.3552 12.7413 72.9178 12.624 72.4485 12.624C71.9792 12.624 71.5418 12.7413 71.1365 12.976C70.7312 13.2 70.4005 13.536 70.1445 13.984C69.8992 14.4213 69.7765 14.944 69.7765 15.552C69.7765 16.16 69.8992 16.6933 70.1445 17.152C70.4005 17.6107 70.7312 17.9627 71.1365 18.208C71.5525 18.4427 71.9898 18.56 72.4485 18.56C72.9178 18.56 73.3552 18.4427 73.7605 18.208C74.1658 17.9733 74.4912 17.632 74.7365 17.184C74.9925 16.7253 75.1205 16.192 75.1205 15.584ZM81.1803 12.464C81.4469 12.016 81.7989 11.6693 82.2363 11.424C82.6843 11.168 83.2123 11.04 83.8203 11.04V12.928H83.3563C82.6416 12.928 82.0976 13.1093 81.7243 13.472C81.3616 13.8347 81.1803 14.464 81.1803 15.36V20H79.3563V11.184H81.1803V12.464ZM93.4329 11.184L88.0249 24.144H86.1369L87.9289 19.856L84.4569 11.184H86.4889L88.9689 17.904L91.5449 11.184H93.4329Z" fill="#ECEAE7"/>
</svg>
