<svg width="33" height="44" viewBox="0 0 33 44" fill="none" xmlns="http://www.w3.org/2000/svg">
<path d="M2.268 37.896H5.088V39H0.9V30.66H2.268V37.896ZM9.10003 39.108C8.47603 39.108 7.91203 38.968 7.40803 38.688C6.90403 38.4 6.50803 38 6.22003 37.488C5.93203 36.968 5.78803 36.368 5.78803 35.688C5.78803 35.016 5.93603 34.42 6.23203 33.9C6.52803 33.38 6.93203 32.98 7.44403 32.7C7.95603 32.42 8.52803 32.28 9.16003 32.28C9.79203 32.28 10.364 32.42 10.876 32.7C11.388 32.98 11.792 33.38 12.088 33.9C12.384 34.42 12.532 35.016 12.532 35.688C12.532 36.36 12.38 36.956 12.076 37.476C11.772 37.996 11.356 38.4 10.828 38.688C10.308 38.968 9.73203 39.108 9.10003 39.108ZM9.10003 37.92C9.45203 37.92 9.78003 37.836 10.084 37.668C10.396 37.5 10.648 37.248 10.84 36.912C11.032 36.576 11.128 36.168 11.128 35.688C11.128 35.208 11.036 34.804 10.852 34.476C10.668 34.14 10.424 33.888 10.12 33.72C9.81603 33.552 9.48803 33.468 9.13603 33.468C8.78403 33.468 8.45603 33.552 8.15203 33.72C7.85603 33.888 7.62003 34.14 7.44403 34.476C7.26803 34.804 7.18003 35.208 7.18003 35.688C7.18003 36.4 7.36003 36.952 7.72003 37.344C8.08803 37.728 8.54803 37.92 9.10003 37.92ZM16.5484 32.28C17.0604 32.28 17.5124 32.384 17.9044 32.592C18.3044 32.792 18.6164 33.044 18.8404 33.348V32.388H20.2204V39.108C20.2204 39.716 20.0924 40.256 19.8364 40.728C19.5804 41.208 19.2084 41.584 18.7204 41.856C18.2404 42.128 17.6644 42.264 16.9924 42.264C16.0964 42.264 15.3524 42.052 14.7604 41.628C14.1684 41.212 13.8324 40.644 13.7524 39.924H15.1084C15.2124 40.268 15.4324 40.544 15.7684 40.752C16.1124 40.968 16.5204 41.076 16.9924 41.076C17.5444 41.076 17.9884 40.908 18.3244 40.572C18.6684 40.236 18.8404 39.748 18.8404 39.108V38.004C18.6084 38.316 18.2924 38.58 17.8924 38.796C17.5004 39.004 17.0524 39.108 16.5484 39.108C15.9724 39.108 15.4444 38.964 14.9644 38.676C14.4924 38.38 14.1164 37.972 13.8364 37.452C13.5644 36.924 13.4284 36.328 13.4284 35.664C13.4284 35 13.5644 34.412 13.8364 33.9C14.1164 33.388 14.4924 32.992 14.9644 32.712C15.4444 32.424 15.9724 32.28 16.5484 32.28ZM18.8404 35.688C18.8404 35.232 18.7444 34.836 18.5524 34.5C18.3684 34.164 18.1244 33.908 17.8204 33.732C17.5164 33.556 17.1884 33.468 16.8364 33.468C16.4844 33.468 16.1564 33.556 15.8524 33.732C15.5484 33.9 15.3004 34.152 15.1084 34.488C14.9244 34.816 14.8324 35.208 14.8324 35.664C14.8324 36.12 14.9244 36.52 15.1084 36.864C15.3004 37.208 15.5484 37.472 15.8524 37.656C16.1644 37.832 16.4924 37.92 16.8364 37.92C17.1884 37.92 17.5164 37.832 17.8204 37.656C18.1244 37.48 18.3684 37.224 18.5524 36.888C18.7444 36.544 18.8404 36.144 18.8404 35.688ZM22.7132 31.512C22.4652 31.512 22.2572 31.428 22.0892 31.26C21.9212 31.092 21.8372 30.884 21.8372 30.636C21.8372 30.388 21.9212 30.18 22.0892 30.012C22.2572 29.844 22.4652 29.76 22.7132 29.76C22.9532 29.76 23.1572 29.844 23.3252 30.012C23.4932 30.18 23.5772 30.388 23.5772 30.636C23.5772 30.884 23.4932 31.092 23.3252 31.26C23.1572 31.428 22.9532 31.512 22.7132 31.512ZM23.3852 32.388V39H22.0172V32.388H23.3852ZM28.5173 32.28C29.0373 32.28 29.5013 32.388 29.9093 32.604C30.3253 32.82 30.6493 33.14 30.8813 33.564C31.1133 33.988 31.2293 34.5 31.2293 35.1V39H29.8733V35.304C29.8733 34.712 29.7253 34.26 29.4293 33.948C29.1333 33.628 28.7293 33.468 28.2173 33.468C27.7053 33.468 27.2973 33.628 26.9933 33.948C26.6973 34.26 26.5493 34.712 26.5493 35.304V39H25.1813V32.388H26.5493V33.144C26.7733 32.872 27.0573 32.66 27.4013 32.508C27.7533 32.356 28.1253 32.28 28.5173 32.28Z" fill="#6C6C6C"/>
<path fill-rule="evenodd" clip-rule="evenodd" d="M20.1251 12.0001C20.1251 11.8012 20.0461 11.6104 19.9054 11.4698C19.7647 11.3291 19.574 11.2501 19.3751 11.2501H8.40207L10.3631 9.57012C10.4379 9.50603 10.4994 9.42783 10.5441 9.33998C10.5887 9.25213 10.6156 9.15635 10.6232 9.0581C10.6308 8.95986 10.619 8.86108 10.5884 8.7674C10.5579 8.67372 10.5092 8.58697 10.4451 8.51212C10.381 8.43727 10.3028 8.37577 10.2149 8.33114C10.1271 8.28651 10.0313 8.25961 9.93305 8.252C9.83481 8.24439 9.73603 8.2562 9.64235 8.28676C9.54867 8.31732 9.46192 8.36603 9.38707 8.43012L5.88707 11.4301C5.80473 11.5005 5.73863 11.5879 5.69331 11.6863C5.64798 11.7847 5.62451 11.8918 5.62451 12.0001C5.62451 12.1085 5.64798 12.2155 5.69331 12.3139C5.73863 12.4123 5.80473 12.4997 5.88707 12.5701L9.38707 15.5701C9.53824 15.6995 9.73464 15.7636 9.93305 15.7482C10.1315 15.7329 10.3156 15.6393 10.4451 15.4881C10.5745 15.3369 10.6386 15.1405 10.6232 14.9421C10.6078 14.7437 10.5142 14.5595 10.3631 14.4301L8.40307 12.7501H19.3751C19.574 12.7501 19.7647 12.6711 19.9054 12.5304C20.0461 12.3898 20.1251 12.199 20.1251 12.0001Z" fill="#6B6B6B"/>
<path d="M13.375 8C13.375 8.702 13.375 9.053 13.544 9.306C13.6168 9.41478 13.7102 9.50821 13.819 9.581C14.072 9.75 14.423 9.75 15.125 9.75H19.375C19.9717 9.75 20.544 9.98705 20.966 10.409C21.3879 10.831 21.625 11.4033 21.625 12C21.625 12.5967 21.3879 13.169 20.966 13.591C20.544 14.0129 19.9717 14.25 19.375 14.25H15.125C14.423 14.25 14.072 14.25 13.819 14.418C13.7101 14.4911 13.6167 14.5849 13.544 14.694C13.375 14.947 13.375 15.298 13.375 16C13.375 18.828 13.375 20.243 14.254 21.121C15.132 22 16.546 22 19.374 22H20.374C23.204 22 24.617 22 25.496 21.121C26.375 20.243 26.375 18.828 26.375 16V8C26.375 5.172 26.375 3.757 25.496 2.879C24.617 2 23.203 2 20.375 2H19.375C16.546 2 15.132 2 14.254 2.879C13.375 3.757 13.375 5.172 13.375 8Z" fill="#6B6B6B"/>
</svg>
