<svg width="163" height="196" viewBox="0 0 163 196" fill="none" xmlns="http://www.w3.org/2000/svg">
<path d="M34.2087 123.083C37.7315 119.317 38.8524 115.123 38.8257 110.396C38.7456 92.4994 38.7723 74.5764 38.799 56.6802C38.799 51.0175 42.0015 46.8506 47.3124 45.4082C48.2465 45.1678 49.1538 45.1411 50.0879 45.1411C71.358 45.1144 92.6548 45.1144 113.925 45.1411C119.556 45.1411 123.559 48.3464 124.974 53.6886C125.267 54.7837 125.267 55.9323 125.267 57.0541C125.294 67.3912 125.267 77.7283 125.294 88.0387C125.294 89.0002 125.107 89.481 124.093 89.8016C121.904 90.5228 120.437 92.1521 119.236 94.0753C113.471 103.371 107.68 112.639 101.942 121.935C101.515 122.656 101.088 123.057 100.127 123.057C78.537 123.03 56.9733 123.03 35.383 123.03C35.1161 123.083 34.8226 123.083 34.2087 123.083Z" fill="#161616"/>
<path d="M10.7772 68.2994C10.7772 53.9824 10.7772 39.6654 10.7772 25.3484C10.7772 19.6857 13.9263 15.4922 19.2639 14.0765C20.4381 13.7827 21.6924 13.7292 22.9201 13.7292C32.1006 13.7025 41.3079 13.756 50.4885 13.7025C54.5183 13.6758 57.8276 15.0381 60.4963 18.0831C62.9249 20.861 65.5136 23.4787 67.9155 26.2833C69.6235 28.2599 71.5984 29.1147 74.2138 29.0879C81.7931 28.9811 89.3457 29.0612 96.925 29.0612C100.928 29.0612 104.344 30.3166 106.799 33.6288C108.08 35.365 108.748 37.3416 108.961 39.4784C109.041 40.3332 108.774 40.5469 107.947 40.5469C105.438 40.4935 102.93 40.5202 100.421 40.5202C83.8214 40.5202 67.1949 40.5202 50.5952 40.5202C42.9358 40.5202 36.7977 45.0343 34.8228 52.0058C34.3424 53.742 34.289 55.5049 34.289 57.2678C34.289 75.1641 34.289 93.087 34.289 110.983C34.289 115.764 32.581 119.718 28.1242 121.828C20.5449 125.46 10.8306 121.374 10.8039 111.544C10.7505 97.1203 10.7772 82.7232 10.7772 68.2994Z" fill="#161616"/>
<path d="M127.269 135.931C120.544 135.931 113.792 135.958 107.066 135.931C103.73 135.905 101.836 133.928 102.182 130.936C102.263 130.188 102.636 129.547 103.01 128.933C109.788 118.035 116.567 107.11 123.373 96.2123C125.401 92.9536 129.084 92.9536 131.139 96.1856C137.944 107.084 144.723 117.982 151.501 128.906C153.69 132.459 151.742 135.905 147.498 135.931C140.72 135.958 133.994 135.931 127.269 135.931Z" fill="#161616"/>
<path d="M129.564 114.082C129.564 116.379 129.564 118.703 129.564 121C129.564 122.122 129.297 123.19 128.123 123.671C126.575 124.312 125 123.297 124.974 121.454C124.894 116.512 124.894 111.544 124.974 106.603C125 105.107 125.988 104.225 127.242 104.225C128.576 104.225 129.484 105.134 129.537 106.736C129.591 109.167 129.564 111.624 129.564 114.082Z" fill="#ECEAE7"/>
<path d="M129.537 128.399C129.564 129.147 129.511 129.868 129.084 130.509C128.577 131.284 127.803 131.497 126.922 131.417C126.068 131.31 125.508 130.829 125.187 130.055C124.867 129.253 124.867 128.425 124.974 127.597C125.134 126.182 126.121 125.22 127.322 125.247C128.47 125.274 129.377 126.208 129.564 127.544C129.564 127.811 129.537 128.105 129.537 128.399Z" fill="#ECEAE7"/>
<path d="M18.1973 180.346V170.611H25.375V188.986H17.3086L7.4375 177.762V188.986H0.273438V170.611H10.1309L18.1973 180.346ZM40.4688 170.16C47.3867 170.16 53.0059 172.184 53.0059 179.129V180.469C53.0332 187.414 47.373 189.424 40.4688 189.438C33.5508 189.424 27.8906 187.414 27.918 180.469V179.129C27.8906 172.17 33.5508 170.174 40.4688 170.16ZM45.8418 180.018V179.566C45.8828 176.572 43.3945 176.025 40.4688 175.984C37.5293 176.025 35.041 176.572 35.082 179.566V180.018C35.041 183.025 37.5293 183.572 40.4688 183.613C43.3945 183.572 45.8828 183.025 45.8418 180.018ZM85.1621 179.826C85.1621 177.967 84.1094 176.463 82.25 176.463H74.4023V183.189H82.25C84.1094 183.189 85.1621 181.672 85.1621 179.826ZM67.2383 170.639H83.5898C88.6348 170.57 92.3809 174.809 92.3398 179.826C92.3809 184.816 88.6348 189.082 83.5898 189.014H67.2383V170.639ZM105.041 175.957L102.512 181.385H107.557L105.041 175.957ZM90.918 189.014L100.775 170.639H109.293L119.15 189.014H111.084L109.635 185.869H100.434L98.9844 189.014H90.918ZM130.088 189.014H122.924V176.463H114.406V170.639H138.605V176.463H130.088V189.014ZM147.971 175.957L145.441 181.385H150.486L147.971 175.957ZM133.848 189.014L143.705 170.639H152.223L162.08 189.014H154.014L152.564 185.869H143.363L141.914 189.014H133.848Z" fill="#161616"/>
</svg>
