<svg width="90" height="28" viewBox="0 0 90 28" fill="none" xmlns="http://www.w3.org/2000/svg">
<path d="M14 2.3335C10.9433 2.3335 8.45835 4.8185 8.45835 7.87516C8.45835 10.8735 10.8033 13.3002 13.86 13.4052C13.9533 13.3935 14.0467 13.3935 14.1167 13.4052H14.1983C15.6326 13.3573 16.992 12.7536 17.9892 11.7216C18.9863 10.6896 19.5431 9.31021 19.5417 7.87516C19.5417 4.8185 17.0567 2.3335 14 2.3335ZM19.9267 16.5073C16.6717 14.3373 11.3633 14.3373 8.08502 16.5073C6.60335 17.499 5.78668 18.8407 5.78668 20.2757C5.78668 21.7107 6.60335 23.0407 8.07335 24.0207C9.70668 25.1173 11.8533 25.6657 14 25.6657C16.1467 25.6657 18.2933 25.1173 19.9267 24.0207C21.3967 23.029 22.2134 21.699 22.2134 20.2523C22.2017 18.8173 21.3967 17.4873 19.9267 16.5073Z" fill="#ECEAE7"/>
<path d="M48.976 12.192C48.976 12.7573 48.8427 13.2907 48.576 13.792C48.3093 14.2933 47.8827 14.704 47.296 15.024C46.7093 15.3333 45.9573 15.488 45.04 15.488H43.024V20H41.2V8.88H45.04C45.8933 8.88 46.6133 9.02933 47.2 9.328C47.7973 9.616 48.24 10.0107 48.528 10.512C48.8267 11.0133 48.976 11.5733 48.976 12.192ZM45.04 14C45.7333 14 46.2507 13.8453 46.592 13.536C46.9333 13.216 47.104 12.768 47.104 12.192C47.104 10.976 46.416 10.368 45.04 10.368H43.024V14H45.04ZM52.5396 12.464C52.8063 12.016 53.1583 11.6693 53.5956 11.424C54.0436 11.168 54.5716 11.04 55.1796 11.04V12.928H54.7156C54.001 12.928 53.457 13.1093 53.0836 13.472C52.721 13.8347 52.5396 14.464 52.5396 15.36V20H50.7156V11.184H52.5396V12.464ZM60.6803 20.144C59.8483 20.144 59.0963 19.9573 58.4243 19.584C57.7523 19.2 57.2243 18.6667 56.8403 17.984C56.4563 17.2907 56.2643 16.4907 56.2643 15.584C56.2643 14.688 56.4616 13.8933 56.8563 13.2C57.2509 12.5067 57.7896 11.9733 58.4723 11.6C59.1549 11.2267 59.9176 11.04 60.7603 11.04C61.6029 11.04 62.3656 11.2267 63.0483 11.6C63.7309 11.9733 64.2696 12.5067 64.6643 13.2C65.0589 13.8933 65.2563 14.688 65.2563 15.584C65.2563 16.48 65.0536 17.2747 64.6483 17.968C64.2429 18.6613 63.6883 19.2 62.9843 19.584C62.2909 19.9573 61.5229 20.144 60.6803 20.144ZM60.6803 18.56C61.1496 18.56 61.5869 18.448 61.9923 18.224C62.4083 18 62.7443 17.664 63.0003 17.216C63.2563 16.768 63.3843 16.224 63.3843 15.584C63.3843 14.944 63.2616 14.4053 63.0163 13.968C62.7709 13.52 62.4456 13.184 62.0403 12.96C61.6349 12.736 61.1976 12.624 60.7283 12.624C60.2589 12.624 59.8216 12.736 59.4163 12.96C59.0216 13.184 58.7069 13.52 58.4723 13.968C58.2376 14.4053 58.1203 14.944 58.1203 15.584C58.1203 16.5333 58.3603 17.2693 58.8403 17.792C59.3309 18.304 59.9443 18.56 60.6803 18.56ZM70.7554 12.672H69.1234V20H67.2834V12.672H66.2434V11.184H67.2834V10.56C67.2834 9.54667 67.55 8.81067 68.0834 8.352C68.6274 7.88267 69.4754 7.648 70.6274 7.648V9.168C70.0727 9.168 69.6834 9.27467 69.4594 9.488C69.2354 9.69067 69.1234 10.048 69.1234 10.56V11.184H70.7554V12.672ZM73.2999 10.016C72.9692 10.016 72.6919 9.904 72.4679 9.68C72.2439 9.456 72.1319 9.17867 72.1319 8.848C72.1319 8.51733 72.2439 8.24 72.4679 8.016C72.6919 7.792 72.9692 7.68 73.2999 7.68C73.6199 7.68 73.8919 7.792 74.1159 8.016C74.3399 8.24 74.4519 8.51733 74.4519 8.848C74.4519 9.17867 74.3399 9.456 74.1159 9.68C73.8919 9.904 73.6199 10.016 73.2999 10.016ZM74.1959 11.184V20H72.3719V11.184H74.1959ZM78.4146 8.16V20H76.5906V8.16H78.4146ZM88.8894 15.376C88.8894 15.7067 88.868 16.0053 88.8254 16.272H82.0894C82.1427 16.976 82.404 17.5413 82.8734 17.968C83.3427 18.3947 83.9187 18.608 84.6014 18.608C85.5827 18.608 86.276 18.1973 86.6814 17.376H88.6494C88.3827 18.1867 87.8974 18.8533 87.1934 19.376C86.5 19.888 85.636 20.144 84.6014 20.144C83.7587 20.144 83.0014 19.9573 82.3294 19.584C81.668 19.2 81.1454 18.6667 80.7614 17.984C80.388 17.2907 80.2014 16.4907 80.2014 15.584C80.2014 14.6773 80.3827 13.8827 80.7454 13.2C81.1187 12.5067 81.636 11.9733 82.2974 11.6C82.9694 11.2267 83.7374 11.04 84.6014 11.04C85.4334 11.04 86.1747 11.2213 86.8254 11.584C87.476 11.9467 87.9827 12.4587 88.3454 13.12C88.708 13.7707 88.8894 14.5227 88.8894 15.376ZM86.9854 14.8C86.9747 14.128 86.7347 13.5893 86.2654 13.184C85.796 12.7787 85.2147 12.576 84.5214 12.576C83.892 12.576 83.3534 12.7787 82.9054 13.184C82.4574 13.5787 82.1907 14.1173 82.1054 14.8H86.9854Z" fill="#ECEAE7"/>
</svg>
