<?xml version="1.0" encoding="UTF-8"?>
<!DOCTYPE svg PUBLIC "-//W3C//DTD SVG 1.1//EN" "http://www.w3.org/Graphics/SVG/1.1/DTD/svg11.dtd">
<svg xmlns="http://www.w3.org/2000/svg" version="1.1" viewBox="0 0 732 920" width="732px" height="284px" style="shape-rendering:geometricPrecision; text-rendering:geometricPrecision; image-rendering:optimizeQuality; fill-rule:evenodd; clip-rule:evenodd" xmlns:xlink="http://www.w3.org/1999/xlink">
<g><path style="opacity:0.991" fill="#df281a" d="M -0.5,-0.5 C 33.1667,-0.5 66.8333,-0.5 100.5,-0.5C 100.333,37.8348 100.5,76.1681 101,114.5C 129.671,88.19 163.671,75.5233 203,76.5C 228.417,75.7281 251.917,81.8948 273.5,95C 288.693,106.891 298.193,122.391 302,141.5C 302.5,184.832 302.667,228.165 302.5,271.5C 268.5,271.5 234.5,271.5 200.5,271.5C 200.667,240.165 200.5,208.832 200,177.5C 195.047,151.906 179.38,139.573 153,140.5C 130.418,139.946 114.085,149.613 104,169.5C 102.683,174.1 101.683,178.766 101,183.5C 100.5,212.831 100.333,242.165 100.5,271.5C 66.8333,271.5 33.1667,271.5 -0.5,271.5C -0.5,180.833 -0.5,90.1667 -0.5,-0.5 Z"/></g>
<g><path style="opacity:0.991" fill="#df281a" d="M 529.5,283.5 C 498.5,283.5 467.5,283.5 436.5,283.5C 416.003,280.732 396.003,275.565 376.5,268C 335.116,246.076 317.283,211.576 323,164.5C 325.741,127.501 344.241,102.001 378.5,88C 411.3,76.2667 445.133,71.4333 480,73.5C 514.873,71.4343 548.707,76.2676 581.5,88C 612.207,101.031 630.707,123.864 637,156.5C 638.292,169.131 638.792,181.798 638.5,194.5C 566.499,194.333 494.499,194.5 422.5,195C 427.537,213.364 439.537,224.031 458.5,227C 479.514,230.961 500.18,229.628 520.5,223C 528,219.332 533.667,213.832 537.5,206.5C 570.827,205.5 604.16,205.167 637.5,205.5C 638.758,219.222 635.258,231.555 627,242.5C 614.702,257.449 599.202,267.616 580.5,273C 563.622,277.76 546.622,281.26 529.5,283.5 Z M 466.5,123.5 C 485.161,121.637 503.161,124.137 520.5,131C 528.887,135.961 534.221,143.127 536.5,152.5C 499.167,152.5 461.833,152.5 424.5,152.5C 428.218,140.28 436.218,132.114 448.5,128C 454.581,126.29 460.581,124.79 466.5,123.5 Z"/></g>
<g><path style="opacity:0.984" fill="#df281a" d="M 731.5,220.5 C 731.5,227.167 731.5,233.833 731.5,240.5C 724.139,260.33 709.806,269.497 688.5,268C 668.891,263.391 658.224,251.058 656.5,231C 658.547,207.786 671.214,194.953 694.5,192.5C 713.051,193.912 725.384,203.245 731.5,220.5 Z"/></g>
</svg>
